<?xml version="1.0" standalone="no"?>
<!DOCTYPE svg PUBLIC "-//W3C//DTD SVG 20010904//EN"
 "http://www.w3.org/TR/2001/REC-SVG-20010904/DTD/svg10.dtd">
<svg version="1.0" xmlns="http://www.w3.org/2000/svg"
 width="256.000000pt" height="256.000000pt" viewBox="0 0 256.000000 256.000000"
 preserveAspectRatio="xMidYMid meet">

<g transform="translate(0.000000,256.000000) scale(0.100000,-0.100000)"
fill="#00000" stroke="none">
<path d="M0 1280 l0 -1280 121 0 122 0 -69 63 c-38 34 -86 78 -107 97 l-38 35
246 1120 c135 616 249 1129 254 1140 6 15 41 31 137 62 l129 41 -397 1 -398 1
0 -1280z"/>
<path d="M820 2556 c0 -2 382 -353 849 -780 467 -426 852 -779 855 -784 3 -4
-9 -71 -26 -148 l-30 -140 -1102 -349 c-605 -191 -1103 -350 -1105 -351 -2 -2
514 -4 1147 -4 l1152 0 0 1280 0 1280 -870 0 c-478 0 -870 -2 -870 -4z"/>
<path d="M896 1778 c-10 -29 -245 -1112 -243 -1115 5 -4 1097 341 1097 347 0
3 -140 134 -312 290 -172 157 -363 331 -425 388 -71 65 -115 99 -117 90z"/>
</g>
</svg>
